<svg version="1.1" id="Layer_1" xmlns="http://www.w3.org/2000/svg" xmlns:xlink="http://www.w3.org/1999/xlink" x="0px" y="0px"
	 width="100%" viewBox="0 0 211 192" enable-background="new 0 0 211 192" xml:space="preserve">
<path fill="#89BFC8" opacity="1.000000" stroke="none" 
	d="
M90.000000,1.000000 
	C91.714378,1.000000 93.428749,1.000000 95.816811,1.311440 
	C97.971367,1.805215 99.451378,1.994848 100.933235,2.168786 
	C121.515656,4.584721 137.241592,17.674196 141.158813,35.930336 
	C138.849731,36.586971 136.841125,37.118961 135.033081,38.043240 
	C133.512222,38.820713 132.224716,40.054676 130.604309,40.841492 
	C129.810257,39.577240 129.314926,38.511951 128.670639,37.546028 
	C122.495743,28.288769 113.780289,24.335491 102.894905,26.199673 
	C92.998924,27.894417 86.276634,33.923004 83.689819,43.649498 
	C80.963455,53.900738 83.728874,62.824692 92.175758,69.526726 
	C98.250572,74.346687 105.416481,75.433815 112.965759,75.143372 
	C113.645973,78.666962 114.317062,81.749779 114.728790,84.943069 
	C114.099243,85.109314 113.729065,85.165085 113.018265,85.017838 
	C107.533470,81.967453 106.209435,82.381050 105.134476,87.254684 
	C105.149811,87.333473 105.043961,87.454185 104.597427,87.337082 
	C97.745872,86.313400 91.213684,85.925522 84.962135,84.392899 
	C71.702133,81.142105 60.114769,74.310112 48.869205,66.702965 
	C38.213486,59.494823 33.487427,61.795967 31.387171,74.300400 
	C30.846478,77.519577 31.607153,79.791862 34.495800,81.418343 
	C36.376530,82.477295 38.172897,83.709488 39.911961,84.992935 
	C53.597858,95.093315 64.596756,107.232361 69.280838,124.451797 
	C63.631927,143.420929 67.293938,160.587341 76.857231,177.046631 
	C70.333221,178.907425 66.047279,183.033966 62.231750,188.179581 
	C51.159122,185.455551 41.545689,180.574524 32.846546,173.790939 
	C31.380369,172.647644 29.568428,171.947739 27.948103,171.031982 
	C27.979963,171.020996 27.963037,171.086243 28.024704,170.734390 
	C22.350040,161.731293 15.840269,153.482803 11.072589,144.327148 
	C5.073115,132.806015 4.474454,119.774811 3.714663,106.529938 
	C3.741679,101.678192 3.697739,97.286293 3.709125,92.690300 
	C3.764449,92.486214 3.769539,92.063339 3.853138,91.618637 
	C5.124127,81.289925 5.159204,71.097427 7.707759,61.577831 
	C16.530430,28.622580 38.866135,10.070046 72.048630,4.005182 
	C78.016159,2.914480 84.015404,1.997297 90.000000,1.000000 
z"/>
<path fill="#89BFC8" opacity="1.000000" stroke="none" 
	d="
M212.000000,85.000000 
	C212.000000,95.020897 212.000000,105.041786 211.686584,115.759926 
	C209.326538,125.343262 208.753784,134.946884 204.864502,142.935928 
	C199.872711,153.189713 198.640427,163.346695 199.341705,174.237701 
	C199.544693,177.390213 199.140396,180.602509 199.554977,183.715424 
	C200.071976,187.597260 198.860245,190.546432 196.000000,193.000000 
	C194.285645,193.000000 192.571289,193.000000 190.159851,192.778625 
	C183.637970,190.437469 177.813171,188.317673 171.617065,186.046570 
	C167.702255,186.000916 164.084488,185.689743 160.631683,186.304779 
	C154.660004,187.368515 148.790665,189.006790 142.858490,189.991241 
	C142.212402,186.841721 141.592499,184.103516 140.959030,181.368469 
	C138.148788,169.235214 139.821930,157.087860 140.874573,144.634338 
	C140.898209,143.913895 140.885574,143.501465 140.977509,142.704147 
	C146.387619,116.732460 158.943268,95.911674 181.595062,82.120819 
	C186.405380,79.192200 187.276306,75.474220 185.406326,71.364418 
	C183.801819,67.838089 180.521896,65.074081 177.672546,61.762489 
	C172.929535,62.449593 168.517593,63.476276 164.055801,64.192474 
	C161.679657,64.573883 158.744568,65.288177 156.909866,64.291313 
	C154.448441,62.953926 152.807770,60.105991 150.844131,57.485748 
	C155.542969,34.693214 146.783691,17.447983 128.613358,2.603286 
	C133.276917,3.209878 136.217896,3.618997 139.165619,3.971800 
	C177.748734,8.589679 205.131882,35.808205 210.116486,74.438377 
	C210.573578,77.980949 211.364227,81.480484 212.000000,85.000000 
z"/>
<path fill="#47704C" opacity="1.000000" stroke="none" 
	d="
M72.000000,193.000000 
	C48.364182,193.000000 24.728365,193.000000 1.046274,193.000000 
	C1.046274,129.114304 1.046274,65.228561 1.046274,1.000000 
	C25.019808,1.000000 49.041245,1.000000 73.345909,1.375030 
	C66.255486,3.556694 58.446243,4.368535 51.595119,7.368484 
	C35.247898,14.526548 21.568348,25.349661 13.138632,41.500786 
	C8.346206,50.682961 4.528281,60.333000 3.932608,70.965858 
	C3.566818,77.495277 2.342314,83.983734 2.117775,90.511719 
	C1.929006,95.999741 2.628279,101.518311 2.905572,107.346848 
	C3.577264,115.910591 3.456738,124.325249 5.161786,132.352127 
	C8.057066,145.982300 13.748313,158.512741 23.995285,168.460342 
	C25.113634,169.546021 26.630831,170.220856 27.963034,171.086243 
	C27.963037,171.086243 27.979963,171.020996 27.982014,171.390076 
	C34.536545,179.004959 42.869164,183.563553 51.841637,186.878464 
	C58.417397,189.307907 65.270508,190.986664 72.000000,193.000000 
z"/>
<path fill="#FAFBFB" opacity="1.000000" stroke="none" 
	d="
M212.000000,84.533142 
	C211.364227,81.480484 210.573578,77.980949 210.116486,74.438377 
	C205.131882,35.808205 177.748734,8.589679 139.165619,3.971800 
	C136.217896,3.618997 133.276917,3.209878 128.613358,2.603286 
	C146.783691,17.447983 155.542969,34.693214 150.642487,57.776352 
	C147.315811,69.507492 139.938202,77.519920 131.480469,85.124207 
	C126.236938,87.207123 121.269592,89.069595 116.388626,91.136131 
	C109.561752,94.026497 102.799309,97.069023 95.713249,100.195038 
	C85.412979,107.905701 79.596588,118.182152 76.107697,130.431641 
	C70.823631,157.912064 85.992287,182.418747 110.948990,190.748978 
	C113.289062,191.530075 115.649185,192.251099 118.000000,193.000000 
	C110.312424,193.000000 102.624847,193.000000 94.300575,192.709503 
	C88.155075,187.215546 82.646271,182.012085 77.137466,176.808624 
	C67.293938,160.587341 63.631927,143.420929 69.451996,124.159500 
	C72.324814,118.324455 74.614914,112.976883 77.617798,108.065086 
	C83.992264,97.638397 94.453476,92.404724 105.043961,87.454185 
	C105.043961,87.454185 105.149811,87.333473 105.531845,87.282990 
	C108.395554,86.561951 110.877213,85.891403 113.358879,85.220856 
	C113.729065,85.165085 114.099243,85.109314 115.082031,84.914383 
	C120.500046,81.530449 125.305443,78.285675 130.407288,74.892052 
	C137.735565,68.367317 141.109253,60.211147 142.428070,50.604179 
	C142.239868,45.478966 141.893036,40.727322 141.546204,35.975677 
	C137.241592,17.674196 121.515656,4.584721 100.933235,2.168786 
	C99.451378,1.994848 97.971367,1.805215 96.245247,1.311440 
	C109.687561,1.000000 123.375122,1.000000 137.716003,1.379645 
	C143.769363,2.844017 149.234116,3.679626 154.556702,5.062455 
	C167.922546,8.534953 179.695999,15.398623 189.226303,25.070162 
	C199.397766,35.392353 206.258621,48.043327 209.292648,62.507919 
	C209.765457,64.762062 211.076538,66.840378 212.000000,69.000000 
	C212.000000,74.022095 212.000000,79.044182 212.000000,84.533142 
z"/>
<path fill="#D3C2DD" opacity="1.000000" stroke="none" 
	d="
M118.463181,193.000000 
	C115.649185,192.251099 113.289062,191.530075 110.948990,190.748978 
	C85.992287,182.418747 70.823631,157.912064 76.493797,130.428879 
	C79.643784,131.025604 82.331039,132.039886 84.866676,133.377014 
	C81.677444,139.956421 84.913246,145.318634 91.854630,146.186035 
	C93.956139,146.448624 95.885056,148.092361 97.973114,149.371902 
	C98.365547,150.098907 98.677902,150.557465 99.115402,151.217407 
	C99.434952,151.673584 99.670509,151.881882 99.882538,152.388443 
	C99.365181,153.613235 99.061516,154.620773 98.435371,155.352264 
	C94.684853,159.733795 96.346382,163.571060 99.555206,167.240585 
	C102.648605,170.778107 109.209366,169.467270 111.006004,164.993164 
	C110.996307,164.996124 110.993423,165.015961 111.303734,164.852722 
	C114.476753,163.452286 117.399712,162.334122 120.177094,160.928360 
	C121.593903,160.211243 122.749397,158.977829 124.010208,157.986481 
	C123.997406,157.995163 123.982681,158.022064 124.271851,157.841782 
	C126.626289,154.778595 128.725067,152.448135 133.010544,153.611023 
	C134.203934,153.934860 136.381683,152.190094 137.491547,150.874435 
	C138.929901,149.169357 139.751312,146.943832 140.838318,144.942368 
	C139.821930,157.087860 138.148788,169.235214 140.959030,181.368469 
	C141.592499,184.103516 142.212402,186.841721 142.531036,190.139709 
	C138.482330,191.467316 134.741165,192.233658 131.000000,193.000000 
	C126.975456,193.000000 122.950912,193.000000 118.463181,193.000000 
z"/>
<path fill="#47704C" opacity="1.000000" stroke="none" 
	d="
M212.000000,68.531342 
	C211.076538,66.840378 209.765457,64.762062 209.292648,62.507919 
	C206.258621,48.043327 199.397766,35.392353 189.226303,25.070162 
	C179.695999,15.398623 167.922546,8.534953 154.556702,5.062455 
	C149.234116,3.679626 143.769363,2.844017 138.184662,1.379645 
	C162.590439,1.000000 187.180862,1.000000 212.000000,1.000000 
	C212.000000,23.353708 212.000000,45.708195 212.000000,68.531342 
z"/>
<path fill="#47704C" opacity="1.000000" stroke="none" 
	d="
M212.000000,129.000000 
	C212.000000,150.333389 212.000000,171.666779 212.000000,193.000000 
	C208.247162,193.000000 204.602768,193.000000 200.502960,192.573730 
	C200.369644,189.745728 200.776840,187.351868 200.999481,184.940948 
	C202.128830,172.711304 198.364441,160.113022 204.873657,148.235825 
	C208.124695,142.303741 209.678513,135.441513 212.000000,129.000000 
z"/>
<path fill="#F6F9F9" opacity="1.000000" stroke="none" 
	d="
M2.934413,107.023354 
	C2.628279,101.518311 1.929006,95.999741 2.117775,90.511719 
	C2.342314,83.983734 3.566818,77.495277 3.932608,70.965858 
	C4.528281,60.333000 8.346206,50.682961 13.138632,41.500786 
	C21.568348,25.349661 35.247898,14.526548 51.595119,7.368484 
	C58.446243,4.368535 66.255486,3.556694 73.814568,1.375030 
	C79.022095,1.000000 84.044182,1.000000 89.533142,1.000000 
	C84.015404,1.997297 78.016159,2.914480 72.048630,4.005182 
	C38.866135,10.070046 16.530430,28.622580 7.707759,61.577831 
	C5.159204,71.097427 5.124127,81.289925 3.778876,91.707596 
	C3.508973,92.462013 3.519901,92.679718 3.653800,92.894386 
	C3.697739,97.286293 3.741679,101.678192 3.537464,106.536789 
	C3.289308,107.003487 2.934413,107.023354 2.934413,107.023354 
z"/>
<path fill="#8EC2CB" opacity="1.000000" stroke="none" 
	d="
M76.857239,177.046631 
	C82.646271,182.012085 88.155075,187.215546 93.831940,192.709503 
	C90.307091,193.000000 86.614182,193.000000 82.226196,192.697891 
	C75.217690,191.004288 68.904259,189.612793 62.590839,188.221283 
	C66.047279,183.033966 70.333221,178.907425 76.857239,177.046631 
z"/>
<path fill="#F3F8F8" opacity="1.000000" stroke="none" 
	d="
M212.000000,128.536819 
	C209.678513,135.441513 208.124695,142.303741 204.873657,148.235825 
	C198.364441,160.113022 202.128830,172.711304 200.999481,184.940948 
	C200.776840,187.351868 200.369644,189.745728 200.023773,192.573730 
	C198.933334,193.000000 197.866653,193.000000 196.399994,193.000000 
	C198.860245,190.546432 200.071976,187.597260 199.554977,183.715424 
	C199.140396,180.602509 199.544693,177.390213 199.341705,174.237701 
	C198.640427,163.346695 199.872711,153.189713 204.864502,142.935928 
	C208.753784,134.946884 209.326538,125.343262 211.686584,116.228584 
	C212.000000,120.024544 212.000000,124.049095 212.000000,128.536819 
z"/>
<path fill="#47704C" opacity="1.000000" stroke="none" 
	d="
M184.000000,193.000000 
	C171.312439,193.000000 158.624878,193.000000 145.627533,192.642593 
	C154.309586,191.124939 162.530319,185.992752 172.129089,187.436920 
	C176.195633,189.507904 180.097824,191.253952 184.000000,193.000000 
z"/>
<path fill="#F5F7F8" opacity="1.000000" stroke="none" 
	d="
M62.231750,188.179581 
	C68.904259,189.612793 75.217690,191.004288 81.765556,192.697891 
	C78.969406,193.000000 75.938812,193.000000 72.454109,193.000000 
	C65.270508,190.986664 58.417397,189.307907 51.841637,186.878464 
	C42.869164,183.563553 34.536545,179.004959 27.950153,171.401062 
	C29.568428,171.947739 31.380369,172.647644 32.846546,173.790939 
	C41.545689,180.574524 51.159122,185.455551 62.231750,188.179581 
z"/>
<path fill="#F6F9F9" opacity="1.000000" stroke="none" 
	d="
M171.964706,187.112000 
	C162.530319,185.992752 154.309586,191.124939 145.158875,192.642593 
	C140.643097,193.000000 136.286194,193.000000 131.464645,193.000000 
	C134.741165,192.233658 138.482330,191.467316 142.550949,190.552505 
	C148.790665,189.006790 154.660004,187.368515 160.631683,186.304779 
	C164.084488,185.689743 167.702255,186.000916 171.609985,186.274933 
	C171.974167,186.654633 171.964706,187.112000 171.964706,187.112000 
z"/>
<path fill="#F3F8F8" opacity="1.000000" stroke="none" 
	d="
M172.129089,187.436920 
	C171.964706,187.112000 171.974167,186.654633 171.981262,186.426254 
	C177.813171,188.317673 183.637970,190.437469 189.731384,192.778625 
	C188.285645,193.000000 186.571289,193.000000 184.428467,193.000000 
	C180.097824,191.253952 176.195633,189.507904 172.129089,187.436920 
z"/>
<path fill="#D2C2DC" opacity="1.000000" stroke="none" 
	d="
M112.956627,74.702599 
	C105.416481,75.433815 98.250572,74.346687 92.175758,69.526726 
	C83.728874,62.824692 80.963455,53.900738 83.689819,43.649498 
	C86.276634,33.923004 92.998924,27.894417 102.894905,26.199673 
	C113.780289,24.335491 122.495743,28.288769 128.670639,37.546028 
	C129.314926,38.511951 129.810257,39.577240 130.676620,41.225056 
	C131.431458,43.914516 131.884369,45.975346 132.274750,48.470734 
	C132.539078,56.852165 129.376877,63.370171 123.687714,69.138115 
	C119.907875,71.099762 116.432251,72.901176 112.956627,74.702599 
z"/>
<path fill="#D2C2DC" opacity="1.000000" stroke="none" 
	d="
M104.597427,87.337082 
	C94.453476,92.404724 83.992264,97.638397 77.617798,108.065086 
	C74.614914,112.976883 72.324814,118.324455 69.540573,123.766861 
	C64.596756,107.232361 53.597858,95.093315 39.911961,84.992935 
	C38.172897,83.709488 36.376530,82.477295 34.495800,81.418343 
	C31.607153,79.791862 30.846478,77.519577 31.387171,74.300400 
	C33.487427,61.795967 38.213486,59.494823 48.869205,66.702965 
	C60.114769,74.310112 71.702133,81.142105 84.962135,84.392899 
	C91.213684,85.925522 97.745872,86.313400 104.597427,87.337082 
z"/>
<path fill="#8EC2CB" opacity="1.000000" stroke="none" 
	d="
M112.965759,75.143372 
	C116.432251,72.901176 119.907875,71.099762 123.813339,69.457520 
	C126.199066,71.424774 128.154953,73.232834 130.110840,75.040894 
	C125.305443,78.285675 120.500046,81.530449 115.341393,84.803909 
	C114.317062,81.749779 113.645973,78.666962 112.965759,75.143372 
z"/>
<path fill="#91C1C9" opacity="1.000000" stroke="none" 
	d="
M132.337280,48.036171 
	C131.884369,45.975346 131.431458,43.914516 130.906219,41.470123 
	C132.224716,40.054676 133.512222,38.820713 135.033081,38.043240 
	C136.841125,37.118961 138.849731,36.586971 141.158813,35.930336 
	C141.893036,40.727322 142.239868,45.478966 142.004883,50.608295 
	C138.394485,50.002712 135.365891,49.019444 132.337280,48.036171 
z"/>
<path fill="#F5F7F8" opacity="1.000000" stroke="none" 
	d="
M2.905572,107.346848 
	C2.934413,107.023354 3.289308,107.003487 3.466507,106.996628 
	C4.474454,119.774811 5.073115,132.806015 11.072589,144.327148 
	C15.840269,153.482803 22.350040,161.731293 28.024700,170.734406 
	C26.630831,170.220856 25.113634,169.546021 23.995285,168.460342 
	C13.748313,158.512741 8.057066,145.982300 5.161786,132.352127 
	C3.456738,124.325249 3.577264,115.910591 2.905572,107.346848 
z"/>
<path fill="#8EC2CB" opacity="1.000000" stroke="none" 
	d="
M113.018265,85.017838 
	C110.877213,85.891403 108.395554,86.561951 105.516510,87.204193 
	C106.209435,82.381050 107.533470,81.967453 113.018265,85.017838 
z"/>
<path fill="#F5F7F8" opacity="1.000000" stroke="none" 
	d="
M3.709124,92.690300 
	C3.519901,92.679718 3.508973,92.462013 3.695276,92.152306 
	C3.769539,92.063339 3.764449,92.486214 3.709124,92.690300 
z"/>
<path fill="#D3C2DD" opacity="1.000000" stroke="none" 
	d="
M96.009293,100.046448 
	C102.799309,97.069023 109.561752,94.026497 116.388626,91.136131 
	C121.269592,89.069595 126.236938,87.207123 131.889557,85.097115 
	C137.442291,83.250267 142.579559,82.136841 147.038361,79.753929 
	C157.525482,74.149315 167.688644,67.938484 177.982895,61.972954 
	C180.521896,65.074081 183.801819,67.838089 185.406326,71.364418 
	C187.276306,75.474220 186.405380,79.192200 181.595062,82.120819 
	C158.943268,95.911674 146.387619,116.732460 140.705612,142.547974 
	C139.552383,142.513275 138.775620,142.249878 137.997498,141.996613 
	C137.996140,142.006775 138.018021,142.005112 137.969360,141.668274 
	C137.281921,140.722702 136.643143,140.113968 136.017838,139.201569 
	C136.024719,138.087570 136.018127,137.277206 136.274734,136.367737 
	C136.715714,136.212799 136.893509,136.156982 137.342651,135.896851 
	C141.790131,131.899551 141.204529,128.313858 137.112442,124.497978 
	C137.635788,122.236885 137.924927,120.223297 138.794434,118.503052 
	C141.291290,113.563194 137.669586,107.545982 132.150208,106.904274 
	C125.870995,106.174202 123.517380,109.836037 121.460823,114.814095 
	C117.765465,114.743507 114.026207,116.076950 112.030304,111.595886 
	C111.372635,110.785553 110.809090,110.259880 110.150360,109.361847 
	C106.408241,108.395020 102.761314,107.800537 98.952011,106.877670 
	C97.862854,104.381676 96.936073,102.214066 96.009293,100.046448 
z"/>
<path fill="#F7F5F7" opacity="1.000000" stroke="none" 
	d="
M99.114388,107.206055 
	C102.761314,107.800537 106.408241,108.395020 110.068153,109.450302 
	C110.081139,109.911110 109.914139,110.085594 109.538132,109.971832 
	C107.871933,109.588989 106.590546,109.263229 105.289917,109.061394 
	C101.313713,108.444382 98.823647,110.890160 98.783455,114.155304 
	C98.753464,116.592316 100.511353,119.857964 102.518265,121.311745 
	C105.098427,123.180771 108.554077,122.159828 110.171310,119.115944 
	C111.266602,117.054466 111.352180,114.456528 111.948257,112.044159 
	C112.007156,111.989807 112.124428,111.880547 112.124428,111.880547 
	C114.026207,116.076950 117.765465,114.743507 121.509956,114.930557 
	C121.990204,115.021492 122.088997,115.254204 121.745361,115.431473 
	C120.258156,115.757843 119.089958,116.134796 117.975502,116.014397 
	C114.254349,115.612373 112.649078,118.174370 112.205818,120.920174 
	C111.862793,123.045090 112.581192,127.047684 113.679153,127.377029 
	C116.895813,128.341858 120.537811,127.888626 124.044968,128.366821 
	C125.973022,136.302658 127.284004,137.246445 134.961945,137.055801 
	C133.101257,137.915680 131.456757,138.564178 129.751541,138.928040 
	C125.537384,139.827347 123.498421,144.227905 125.411964,148.035355 
	C127.286377,151.764908 130.709229,151.726395 133.531998,150.688446 
	C137.161118,149.353958 139.116882,146.227493 137.998840,141.986465 
	C138.775620,142.249878 139.552383,142.513275 140.601044,142.932861 
	C140.885574,143.501465 140.898209,143.913895 140.874573,144.634338 
	C139.751312,146.943832 138.929901,149.169357 137.491547,150.874435 
	C136.381683,152.190094 134.203934,153.934860 133.010544,153.611023 
	C128.725067,152.448135 126.626289,154.778595 124.274025,157.447968 
	C124.192581,156.434097 124.438843,155.641708 124.596886,154.832077 
	C125.419823,150.616013 123.244446,147.376938 119.317810,146.938171 
	C114.492432,146.398987 111.971741,148.323746 111.907227,152.596741 
	C111.837090,157.242172 114.214867,159.398010 119.180862,158.990952 
	C120.811638,158.857269 122.409889,158.326813 124.023010,157.977783 
	C122.749397,158.977829 121.593903,160.211243 120.177094,160.928360 
	C117.399712,162.334122 114.476753,163.452286 111.290070,164.468628 
	C111.232941,163.124527 112.048607,161.741302 111.662949,160.927094 
	C110.540184,158.556595 109.399521,155.462555 107.377266,154.478607 
	C105.719597,153.672058 102.194466,154.825867 100.567162,156.295486 
	C98.382645,158.268326 97.655777,161.163849 100.037941,164.238968 
	C102.143089,166.956467 104.505310,167.405075 107.426224,166.591156 
	C108.674492,166.243332 109.822266,165.534821 111.015701,164.990204 
	C109.209366,169.467270 102.648605,170.778107 99.555206,167.240585 
	C96.346382,163.571060 94.684853,159.733795 98.435371,155.352264 
	C99.061516,154.620773 99.365181,153.613235 99.911957,152.362030 
	C100.006050,151.990784 100.063110,151.937759 100.499557,151.936859 
	C104.362938,151.638321 108.232872,153.319565 110.622795,148.971649 
	C112.794998,145.019775 111.152740,142.028732 108.829590,138.755646 
	C108.107758,138.094223 107.566360,137.630249 107.362007,137.049316 
	C111.419960,134.884201 112.908028,132.030563 110.995140,127.912773 
	C108.790657,123.167259 104.842163,122.532593 98.949051,125.615295 
	C98.856071,124.560989 98.896370,123.876495 98.747658,123.235878 
	C97.776253,119.051147 95.596588,115.739754 90.878052,117.151253 
	C88.677277,117.809593 85.594727,120.547668 85.565903,122.384720 
	C85.507248,126.122581 87.105377,129.939835 92.255577,129.996704 
	C93.246567,130.007629 94.227013,130.973648 94.782005,131.395508 
	C90.997017,130.600128 88.174889,131.396667 86.050148,133.903809 
	C85.983597,133.329437 85.955093,133.099915 85.952271,132.480652 
	C85.178116,129.827988 84.579506,127.466354 83.529419,125.326233 
	C82.098442,122.409836 85.994637,114.211853 89.048210,114.792564 
	C95.588531,116.036362 97.490845,112.010895 99.114388,107.206055 
M117.713821,131.124298 
	C113.037292,131.580627 111.398514,135.001678 111.700485,138.794067 
	C111.994514,142.486526 114.724831,144.397018 118.809837,144.107010 
	C122.812439,143.822861 124.748482,141.130859 124.711601,137.965546 
	C124.671524,134.526031 123.232224,130.971664 117.713821,131.124298 
z"/>
<path fill="#89C1CA" opacity="1.000000" stroke="none" 
	d="
M177.672546,61.762489 
	C167.688644,67.938484 157.525482,74.149315 147.038361,79.753929 
	C142.579559,82.136841 137.442291,83.250267 132.204285,84.967712 
	C139.938202,77.519920 147.315811,69.507492 150.613083,58.197166 
	C152.807770,60.105991 154.448441,62.953926 156.909866,64.291313 
	C158.744568,65.288177 161.679657,64.573883 164.055801,64.192474 
	C168.517593,63.476276 172.929535,62.449593 177.672546,61.762489 
z"/>
<path fill="#89BFC8" opacity="1.000000" stroke="none" 
	d="
M132.274765,48.470734 
	C135.365891,49.019444 138.394485,50.002712 141.846252,50.981865 
	C141.109253,60.211147 137.735565,68.367317 130.407288,74.892052 
	C128.154953,73.232834 126.199066,71.424774 124.117554,69.297302 
	C129.376877,63.370171 132.539078,56.852165 132.274765,48.470734 
z"/>
<path fill="#D8C6DE" opacity="1.000000" stroke="none" 
	d="
M98.952011,106.877670 
	C97.490845,112.010895 95.588531,116.036362 89.048210,114.792564 
	C85.994637,114.211853 82.098442,122.409836 83.529419,125.326233 
	C84.579506,127.466354 85.178116,129.827988 85.726166,132.530579 
	C85.474403,132.970245 85.018303,133.054169 85.018303,133.054169 
	C82.331039,132.039886 79.643784,131.025604 76.570419,130.014084 
	C79.596588,118.182152 85.412979,107.905701 95.713249,100.195038 
	C96.936073,102.214066 97.862854,104.381676 98.952011,106.877670 
z"/>
<path fill="#F3EFF4" opacity="1.000000" stroke="none" 
	d="
M84.866676,133.377014 
	C85.018303,133.054169 85.474403,132.970245 85.700500,132.920319 
	C85.955093,133.099915 85.983597,133.329437 85.965927,134.236832 
	C86.704552,137.725418 86.694672,141.413208 88.524208,143.070847 
	C90.002167,144.409943 94.260315,144.247101 96.272812,143.049454 
	C99.044937,141.399750 99.660446,137.930481 98.341431,134.757294 
	C101.485970,135.627274 104.255470,136.396759 107.024963,137.166260 
	C107.566360,137.630249 108.107758,138.094223 108.393982,138.760300 
	C99.937042,137.813507 97.798096,142.510147 98.074524,148.932098 
	C98.013901,148.989090 97.893028,149.103470 97.893028,149.103470 
	C95.885056,148.092361 93.956139,146.448624 91.854630,146.186035 
	C84.913246,145.318634 81.677444,139.956421 84.866676,133.377014 
z"/>
<path fill="#F3EFF4" opacity="1.000000" stroke="none" 
	d="
M98.990257,151.016037 
	C98.677902,150.557465 98.365547,150.098907 97.973114,149.371902 
	C97.893028,149.103470 98.013901,148.989090 98.327393,149.009094 
	C99.050880,149.358459 99.460884,149.687805 99.703506,150.164551 
	C99.325012,150.524048 99.143059,150.758743 98.990257,151.016037 
z"/>
<path fill="#F7F5F7" opacity="1.000000" stroke="none" 
	d="
M99.115402,151.217407 
	C99.143059,150.758743 99.325012,150.524048 99.765778,150.482178 
	C100.017998,151.080841 100.040550,151.509308 100.063110,151.937759 
	C100.063110,151.937759 100.006050,151.990784 99.976631,152.017212 
	C99.670509,151.881882 99.434952,151.673584 99.115402,151.217407 
z"/>
<path fill="#D9C7DF" opacity="1.000000" stroke="none" 
	d="
M137.997498,141.996613 
	C139.116882,146.227493 137.161118,149.353958 133.531998,150.688446 
	C130.709229,151.726395 127.286377,151.764908 125.411964,148.035355 
	C123.498421,144.227905 125.537384,139.827347 129.751541,138.928040 
	C131.456757,138.564178 133.101257,137.915680 135.036957,136.952393 
	C135.414093,136.374023 135.546387,136.262146 135.789520,136.231552 
	C135.881592,136.290695 136.011520,136.466843 136.011536,136.466843 
	C136.018127,137.277206 136.024719,138.087570 136.110962,139.525513 
	C136.799759,140.770447 137.408890,141.387787 138.018021,142.005112 
	C138.018021,142.005112 137.996140,142.006775 137.997498,141.996613 
z"/>
<path fill="#F2EEF3" opacity="1.000000" stroke="none" 
	d="
M121.941071,114.905029 
	C123.517380,109.836037 125.870995,106.174202 132.150208,106.904274 
	C137.669586,107.545982 141.291290,113.563194 138.794434,118.503052 
	C137.924927,120.223297 137.635788,122.236885 137.023987,124.576195 
	C136.966370,125.035889 136.790421,125.193428 136.459030,125.065536 
	C132.168976,122.205315 128.514862,122.415619 124.914360,126.047089 
	C124.411331,126.019203 124.210785,126.011024 124.151443,125.662415 
	C123.558098,121.966064 122.823547,118.610130 122.088997,115.254204 
	C122.088997,115.254204 121.990204,115.021492 121.941071,114.905029 
M126.323868,110.594780 
	C123.723183,115.467453 124.047974,118.654068 127.329811,120.464363 
	C130.622086,122.280411 135.913315,120.916451 136.894989,117.369957 
	C137.428375,115.443069 136.640198,111.728119 135.290588,111.017250 
	C132.942352,109.780373 129.697800,110.245193 126.323868,110.594780 
z"/>
<path fill="#F2EEF3" opacity="1.000000" stroke="none" 
	d="
M137.054840,124.957672 
	C141.204529,128.313858 141.790131,131.899551 137.208801,135.699310 
	C136.613434,135.452545 136.395081,135.226181 136.307068,134.704575 
	C136.573868,131.319229 136.682144,128.256332 136.790421,125.193428 
	C136.790421,125.193428 136.966370,125.035889 137.054840,124.957672 
z"/>
<path fill="#F7F5F7" opacity="1.000000" stroke="none" 
	d="
M110.163345,109.822655 
	C110.809090,110.259880 111.372635,110.785553 112.030304,111.595886 
	C112.124428,111.880547 112.007156,111.989807 111.663902,111.953651 
	C110.851814,111.306862 110.382973,110.696228 109.914139,110.085594 
	C109.914139,110.085594 110.081139,109.911110 110.163345,109.822655 
z"/>
<path fill="#F7F5F7" opacity="1.000000" stroke="none" 
	d="
M137.969360,141.668274 
	C137.408890,141.387787 136.799759,140.770447 136.097504,139.829163 
	C136.643143,140.113968 137.281921,140.722702 137.969360,141.668274 
z"/>
<path fill="#F7F5F7" opacity="1.000000" stroke="none" 
	d="
M136.148544,135.027008 
	C136.395081,135.226181 136.613434,135.452545 136.937439,135.903625 
	C136.893509,136.156982 136.715714,136.212799 136.274719,136.367737 
	C136.011520,136.466843 135.881592,136.290695 135.907654,135.945419 
	C136.005341,135.409088 136.076950,135.218048 136.148544,135.027008 
z"/>
<path fill="#D8C5DD" opacity="1.000000" stroke="none" 
	d="
M136.307068,134.704575 
	C136.076950,135.218048 136.005341,135.409088 135.815582,135.886276 
	C135.546387,136.262146 135.414093,136.374023 135.225540,136.611481 
	C127.284004,137.246445 125.973022,136.302658 124.037239,128.371979 
	C123.997734,128.001236 123.994370,128.019058 124.219467,127.830353 
	C124.701996,127.116707 124.959419,126.591759 125.216835,126.066803 
	C128.514862,122.415619 132.168976,122.205315 136.459030,125.065536 
	C136.682144,128.256332 136.573868,131.319229 136.307068,134.704575 
z"/>
<path fill="#D9C6DE" opacity="1.000000" stroke="none" 
	d="
M107.362007,137.049316 
	C104.255470,136.396759 101.485970,135.627274 98.353165,134.722961 
	C97.989861,134.588135 98.007248,134.508896 98.055740,134.070114 
	C98.069832,132.754227 98.035423,131.877106 98.014244,130.670532 
	C98.029373,129.901443 98.031288,129.461823 98.041626,128.763657 
	C98.037209,128.333115 98.024368,128.161118 98.005722,127.995438 
	C97.999901,128.001740 97.991325,128.016663 98.213242,127.822830 
	C98.625076,127.083298 98.814995,126.537598 99.002701,125.995529 
	C99.000488,125.999168 98.994911,126.005394 98.994911,126.005394 
	C104.842163,122.532593 108.790657,123.167259 110.995140,127.912773 
	C112.908028,132.030563 111.419960,134.884201 107.362007,137.049316 
z"/>
<path fill="#D8C5DD" opacity="1.000000" stroke="none" 
	d="
M100.499550,151.936859 
	C100.040550,151.509308 100.017998,151.080841 99.933167,150.334763 
	C99.460884,149.687805 99.050880,149.358459 98.388008,148.952103 
	C97.798096,142.510147 99.937042,137.813507 108.574402,138.957733 
	C111.152740,142.028732 112.794998,145.019775 110.622795,148.971649 
	C108.232872,153.319565 104.362938,151.638321 100.499550,151.936859 
z"/>
<path fill="#D9C6DE" opacity="1.000000" stroke="none" 
	d="
M121.745361,115.431473 
	C122.823547,118.610130 123.558098,121.966064 124.117416,125.997849 
	C123.959587,127.122162 123.976982,127.570610 123.994370,128.019058 
	C123.994370,128.019058 123.997734,128.001236 124.005463,127.996086 
	C120.537811,127.888626 116.895813,128.341858 113.679153,127.377029 
	C112.581192,127.047684 111.862793,123.045090 112.205818,120.920174 
	C112.649078,118.174370 114.254349,115.612373 117.975502,116.014397 
	C119.089958,116.134796 120.258156,115.757843 121.745361,115.431473 
z"/>
<path fill="#D9C6DE" opacity="1.000000" stroke="none" 
	d="
M95.212318,131.499069 
	C94.227013,130.973648 93.246567,130.007629 92.255577,129.996704 
	C87.105377,129.939835 85.507248,126.122581 85.565903,122.384720 
	C85.594727,120.547668 88.677277,117.809593 90.878052,117.151253 
	C95.596588,115.739754 97.776253,119.051147 98.747658,123.235878 
	C98.896370,123.876495 98.856071,124.560989 98.949051,125.615295 
	C98.994911,126.005394 99.000488,125.999168 98.762955,126.173813 
	C98.347397,126.904526 98.169357,127.460594 97.991325,128.016663 
	C97.991325,128.016663 97.999901,128.001740 97.745483,127.958527 
	C97.316277,127.927612 97.141487,127.939911 96.747345,128.198914 
	C96.314140,129.285507 96.100296,130.125366 95.832840,131.228607 
	C95.748924,131.668564 95.718620,131.845169 95.597336,131.940582 
	C95.506355,131.859375 95.212318,131.499069 95.212318,131.499069 
z"/>
<path fill="#D6C3DC" opacity="1.000000" stroke="none" 
	d="
M94.782005,131.395508 
	C95.212318,131.499069 95.506355,131.859375 95.822937,132.197754 
	C96.762093,133.193726 97.384666,133.851303 98.007248,134.508896 
	C98.007248,134.508896 97.989861,134.588135 97.978134,134.622467 
	C99.660446,137.930481 99.044937,141.399750 96.272812,143.049454 
	C94.260315,144.247101 90.002167,144.409943 88.524208,143.070847 
	C86.694672,141.413208 86.704552,137.725418 86.003983,134.581665 
	C88.174889,131.396667 90.997017,130.600128 94.782005,131.395508 
z"/>
<path fill="#DBC9DF" opacity="1.000000" stroke="none" 
	d="
M109.538132,109.971832 
	C110.382973,110.696228 110.851814,111.306862 111.605003,112.008011 
	C111.352180,114.456528 111.266602,117.054466 110.171310,119.115944 
	C108.554077,122.159828 105.098427,123.180771 102.518265,121.311745 
	C100.511353,119.857964 98.753464,116.592316 98.783455,114.155304 
	C98.823647,110.890160 101.313713,108.444382 105.289917,109.061394 
	C106.590546,109.263229 107.871933,109.588989 109.538132,109.971832 
z"/>
<path fill="#DBCAE0" opacity="1.000000" stroke="none" 
	d="
M118.109177,131.117676 
	C123.232224,130.971664 124.671524,134.526031 124.711601,137.965546 
	C124.748482,141.130859 122.812439,143.822861 118.809837,144.107010 
	C114.724831,144.397018 111.994514,142.486526 111.700485,138.794067 
	C111.398514,135.001678 113.037292,131.580627 118.109177,131.117676 
z"/>
<path fill="#D8C6DE" opacity="1.000000" stroke="none" 
	d="
M111.006004,164.993164 
	C109.822266,165.534821 108.674492,166.243332 107.426224,166.591156 
	C104.505310,167.405075 102.143089,166.956467 100.037941,164.238968 
	C97.655777,161.163849 98.382645,158.268326 100.567162,156.295486 
	C102.194466,154.825867 105.719597,153.672058 107.377266,154.478607 
	C109.399521,155.462555 110.540184,158.556595 111.662949,160.927094 
	C112.048607,161.741302 111.232941,163.124527 110.979752,164.631882 
	C110.993423,165.015961 110.996307,164.996124 111.006004,164.993164 
z"/>
<path fill="#D8C6DE" opacity="1.000000" stroke="none" 
	d="
M124.010208,157.986481 
	C122.409889,158.326813 120.811638,158.857269 119.180862,158.990952 
	C114.214867,159.398010 111.837090,157.242172 111.907227,152.596741 
	C111.971741,148.323746 114.492432,146.398987 119.317810,146.938171 
	C123.244446,147.376938 125.419823,150.616013 124.596886,154.832077 
	C124.438843,155.641708 124.192581,156.434097 123.984848,157.628265 
	C123.982681,158.022064 123.997406,157.995163 124.010208,157.986481 
z"/>
<path fill="#D6C1DC" opacity="1.000000" stroke="none" 
	d="
M126.576439,110.295700 
	C129.697800,110.245193 132.942352,109.780373 135.290588,111.017250 
	C136.640198,111.728119 137.428375,115.443069 136.894989,117.369957 
	C135.913315,120.916451 130.622086,122.280411 127.329811,120.464363 
	C124.047974,118.654068 123.723183,115.467453 126.576439,110.295700 
z"/>
<path fill="#F7F5F7" opacity="1.000000" stroke="none" 
	d="
M124.219475,127.830353 
	C123.976982,127.570610 123.959587,127.122162 123.976212,126.338280 
	C124.210785,126.011024 124.411331,126.019203 124.914360,126.047089 
	C124.959419,126.591759 124.701996,127.116707 124.219475,127.830353 
z"/>
<path fill="#F7F5F7" opacity="1.000000" stroke="none" 
	d="
M98.055740,134.070114 
	C97.384666,133.851303 96.762093,133.193726 95.913910,132.278961 
	C95.718620,131.845169 95.748924,131.668564 96.186577,131.239014 
	C97.062958,130.990692 97.531990,130.995346 98.001022,131.000000 
	C98.035423,131.877106 98.069832,132.754227 98.055740,134.070114 
z"/>
<path fill="#F3EFF4" opacity="1.000000" stroke="none" 
	d="
M98.014244,130.670532 
	C97.531990,130.995346 97.062958,130.990692 96.240189,130.975647 
	C96.100296,130.125366 96.314140,129.285507 96.900650,128.401154 
	C97.526604,128.578522 97.779900,128.800369 98.033195,129.022217 
	C98.031288,129.461823 98.029373,129.901443 98.014244,130.670532 
z"/>
<path fill="#F7F5F7" opacity="1.000000" stroke="none" 
	d="
M98.213242,127.822830 
	C98.169357,127.460594 98.347397,126.904526 98.765175,126.170181 
	C98.814995,126.537598 98.625076,127.083298 98.213242,127.822830 
z"/>
<path fill="#F7F5F7" opacity="1.000000" stroke="none" 
	d="
M98.041626,128.763657 
	C97.779900,128.800369 97.526604,128.578522 97.120010,128.154434 
	C97.141487,127.939911 97.316277,127.927612 97.751305,127.952225 
	C98.024368,128.161118 98.037209,128.333115 98.041626,128.763657 
z"/>
</svg>